<svg width="388" height="503" viewBox="0 0 388 503" fill="none" xmlns="http://www.w3.org/2000/svg">
<ellipse cx="187.498" cy="445.571" rx="138.238" ry="56.6641" fill="#507F10"/>
<path d="M358.263 275.579C358.263 382.875 358.263 469.856 195.63 469.856C32.9975 469.856 32.9973 382.875 32.9973 275.579C32.9973 168.283 105.811 81.3018 195.63 81.3018C285.45 81.3018 358.263 168.283 358.263 275.579Z" fill="#DE9090"/>
<ellipse rx="48.7645" ry="72.8922" transform="matrix(0.941015 -0.338363 0.341088 0.940031 103.748 411.526)" fill="#B46C6C"/>
<ellipse rx="48.7349" ry="72.9368" transform="matrix(0.867004 0.498301 -0.501701 0.865041 255.816 411.526)" fill="#B46C6C"/>
<ellipse rx="8.13165" ry="8.09489" transform="matrix(-1 0 0 1 138.709 202.725)" fill="#424242"/>
<ellipse rx="8.13167" ry="8.09489" transform="matrix(-1 0 0 1 236.288 202.725)" fill="#424242"/>
<ellipse rx="24.395" ry="24.2846" transform="matrix(-1 0 0 1 301.341 24.6376)" fill="#DE9090"/>
<ellipse rx="24.3123" ry="24.3674" transform="matrix(-0.501701 0.865041 0.867004 0.498301 82.5842 33.5264)" fill="#DE9090"/>
<path d="M130.577 259.389L163.104 251.294L195.63 267.484L220.025 259.389" stroke="#424242"/>
<ellipse rx="8.10128" ry="24.3758" transform="matrix(0.418398 0.908264 -0.909695 0.415276 26.0346 276.87)" fill="#DE9090"/>
<ellipse rx="8.11329" ry="24.3399" transform="matrix(-0.708708 0.705502 -0.708708 -0.705502 365 282.285)" fill="#DE9090"/>
<rect width="16.2236" height="48.6887" transform="matrix(0.679336 -0.733828 0.736889 0.676014 114.314 174.156)" fill="#424242"/>
<rect width="16.2082" height="48.7348" transform="matrix(0.501701 0.865041 -0.867004 0.498301 254.147 162.25)" fill="#424242"/>
<rect width="16.2428" height="89.2983" transform="matrix(0.849971 0.52683 -0.530283 0.847821 291.773 32.7324)" fill="#DE9090"/>
<rect width="16.247" height="89.2749" transform="matrix(0.883076 -0.46923 0.472553 0.881302 84.8425 45.8224)" fill="#DE9090"/>
</svg>
