<svg width="514" height="334" viewBox="0 0 514 334" fill="none" xmlns="http://www.w3.org/2000/svg">
<path d="M513.82 244.747C513.82 276.049 364.457 321 288.017 321C-30.0154 365.481 1.78771 276.049 1.78771 244.747C1.78771 213.445 230.66 193.911 307.099 193.911C383.539 193.911 513.82 213.445 513.82 244.747Z" fill="#507F10"/>
<path d="M491.557 155.785C491.557 263.106 487.511 277.031 324.681 277.031C161.85 277.031 97.1963 294.878 97.1963 187.557C97.1963 80.2355 207.628 0.101257 297.557 0.101257C387.486 0.101257 491.557 48.4634 491.557 155.785Z" fill="#DE9090"/>
<ellipse rx="24.5" ry="24" transform="matrix(-1 0 0 1 26.5 231)" fill="#DE9090"/>
<rect width="16.2428" height="89.2983" transform="matrix(0.258819 0.965926 -0.966971 0.254888 114.172 194.176)" fill="#DE9090"/>
<rect width="16.247" height="89.2749" transform="matrix(0.707107 0.707107 -0.704439 0.709765 109.772 213.235)" fill="#DE9090"/>
<ellipse rx="24.3123" ry="24.3674" transform="matrix(-0.501701 0.865041 0.867004 0.498301 48.4409 290.879)" fill="#DE9090"/>
</svg>
