<svg width="388" height="500" viewBox="0 0 388 500" fill="none" xmlns="http://www.w3.org/2000/svg">
<ellipse cx="187.254" cy="443.548" rx="138.406" ry="56.4516" fill="#507F10"/>
<path d="M120.853 105.221C90.9483 98.6766 43.561 96.7131 51.8422 128.129C60.1235 159.544 78.2964 173.943 86.3477 177.215" stroke="#E7B1B1" stroke-width="2"/>
<path d="M333.33 186.396C353.979 163.899 379.381 124.046 347.898 115.474C316.416 106.903 294.797 115.363 287.923 120.665" stroke="#E7B1B1" stroke-width="2"/>
<path d="M358.228 274.194C358.228 381.087 358.228 467.742 195.397 467.742C32.5671 467.742 32.5669 381.087 32.5669 274.194C32.5669 167.3 105.469 80.6452 195.397 80.6452C285.326 80.6452 358.228 167.3 358.228 274.194Z" fill="#DE9090"/>
<ellipse rx="48.7961" ry="72.661" transform="matrix(0.941549 -0.336876 0.342589 0.939485 103.404 409.631)" fill="#B46C6C"/>
<ellipse rx="48.7341" ry="72.7546" transform="matrix(0.868071 0.49644 -0.503568 0.863955 255.656 409.631)" fill="#B46C6C"/>
<ellipse rx="8.14153" ry="8.06451" transform="matrix(-1 0 0 1 138.406 201.613)" fill="#424242"/>
<ellipse rx="8.14154" ry="8.06451" transform="matrix(-1 0 0 1 236.105 201.613)" fill="#424242"/>
<ellipse rx="24.4246" ry="24.1936" transform="matrix(-1 0 0 1 329.736 195.08)" fill="#E7B1B1"/>
<ellipse rx="24.2515" ry="24.367" transform="matrix(-0.503568 0.863955 0.868071 0.49644 71.5279 172.289)" fill="#E7B1B1"/>
<ellipse rx="8.07795" ry="24.3846" transform="matrix(0.420116 0.90747 -0.910473 0.413569 25.5955 275.48)" fill="#DE9090"/>
<ellipse rx="8.10312" ry="24.3094" transform="matrix(-0.710459 0.703738 -0.710459 -0.703738 364.972 280.875)" fill="#DE9090"/>
<rect width="16.1713" height="48.7216" transform="matrix(-0.327015 -0.945019 0.944547 -0.328375 117.094 199.257)" fill="#424242"/>
<rect width="16.1528" height="48.7774" transform="matrix(-0.260022 0.965603 -0.965232 -0.261396 267.544 183.636)" fill="#424242"/>
<path d="M161 279C168.437 256.361 189.05 224.667 212 279" stroke="#424242"/>
</svg>
