<svg width="497" height="588" viewBox="0 0 497 588" fill="none" xmlns="http://www.w3.org/2000/svg">
<path d="M445 473.846C445 527.885 262.976 588 140.093 588C17.2092 588 0 527.885 0 473.846C0 419.807 99.6166 376 222.5 376C345.383 376 445 419.807 445 473.846Z" fill="#508010"/>
<path d="M105.049 55.0725C129.177 49.6278 139.708 68.4867 141.957 78.5967L140.374 142.66C51.878 143.518 23.8933 31.9774 32.6246 42.7483C41.3558 53.5191 74.8896 61.8783 105.049 55.0725Z" fill="#BDA887"/>
<path d="M445 278.154C445 413.251 428.519 514.615 222.5 522.769C15.1693 530.975 0 413.251 0 278.154C0 143.057 131.852 33.5386 222.5 33.5385C321.389 33.5384 445 143.057 445 278.154Z" fill="#E7CCA3"/>
<path d="M404.113 80.3875C381.581 61.4641 360.455 75.5317 352.709 84.931L320.313 153.153C413.117 202.467 501.918 100.501 486.99 107.049C472.061 113.597 432.277 104.042 404.113 80.3875Z" fill="#BDA887"/>
<path d="M121.394 540.055C76.4411 540.327 40 451.274 40 451.274C40 451.274 76.4411 361.779 121.394 361.507C166.346 361.235 202.787 400.983 202.787 450.288C202.787 499.592 166.346 539.783 121.394 540.055Z" fill="#BDA887"/>
</svg>
