<svg width="1097" height="636" viewBox="0 0 1097 636" fill="none" xmlns="http://www.w3.org/2000/svg">
<path d="M808 521.846C808 575.885 477.493 636 254.37 636C31.2473 636 0 575.885 0 521.846C0 467.807 180.877 424 404 424C627.123 424 808 467.807 808 521.846Z" fill="#508010"/>
<path d="M181 391.893C181 539.341 186.56 558.473 410.351 558.473C634.141 558.473 723 582.993 723 435.544C723 288.096 571.225 178 447.629 178C324.033 178 181 244.444 181 391.893Z" fill="#E7CCA3"/>
<path d="M681.118 337.108C650.135 311.087 621.085 330.431 610.433 343.356L565.886 437.168C693.5 504.978 815.609 364.766 795.081 373.77C774.553 382.774 719.846 369.635 681.118 337.108Z" fill="#BDA887"/>
<path d="M111.923 539.705C50.1097 540.079 -4.62515e-05 417.623 -4.62515e-05 417.623C-4.62515e-05 417.623 50.1098 294.56 111.923 294.185C173.737 293.811 223.847 348.469 223.847 416.267C223.847 484.065 173.737 539.33 111.923 539.705Z" fill="#BDA887"/>
</svg>
