<svg width="445" height="635" viewBox="0 0 445 635" fill="none" xmlns="http://www.w3.org/2000/svg">
<path d="M445 521.026C445 574.98 262.976 635 140.093 635C17.2092 635 0 574.98 0 521.026C0 467.072 99.6166 423.333 222.5 423.333C345.383 423.333 445 467.072 445 521.026Z" fill="#508010"/>
<path d="M135.121 70.8304C153.811 87.0124 144.877 106.648 138.074 114.443L85.5756 151.1C32.4058 80.4321 105.582 -8.11645 102.091 5.28319C98.5999 18.6828 111.758 50.603 135.121 70.8304Z" fill="#BDA887"/>
<path d="M445 325.641C445 460.526 428.519 561.731 222.5 569.872C15.1693 578.065 0 460.526 0 325.641C0 190.756 131.852 81.4103 222.5 81.4103C321.389 81.4102 445 190.756 445 325.641Z" fill="#E7CCA3"/>
<path d="M207.756 412.334C223.567 491.744 179.784 567.116 179.784 567.116C179.784 567.116 110.366 513.741 94.5549 434.332C78.7435 354.923 91.2669 285.624 122.526 279.55C153.786 273.475 191.945 332.925 207.756 412.334Z" fill="#BDA887"/>
<path d="M333.797 82.8895C307.427 95.9151 311.822 120.881 317.316 131.736L366.76 188.723C449.168 123.595 391.483 1.47924 391.483 17.7613C391.483 34.0433 366.76 66.6074 333.797 82.8895Z" fill="#BDA887"/>
</svg>
