<svg width="1022" height="626" viewBox="0 0 1022 626" fill="none" xmlns="http://www.w3.org/2000/svg">
<path d="M1021.68 510.917C1021.68 564.956 773.389 625.071 605.77 625.071C438.152 625.071 414.678 564.956 414.678 510.917C414.678 456.878 550.559 413.071 718.178 413.071C885.796 413.071 1021.68 456.878 1021.68 510.917Z" fill="#508010"/>
<path d="M804.354 88.0129C823.044 104.22 814.111 123.887 807.308 131.694L754.809 168.409C701.639 97.6297 774.815 8.94166 771.324 22.3624C767.833 35.7831 780.992 67.7536 804.354 88.0129Z" fill="#BDA887"/>
<path d="M722.183 503.093C571.192 543.551 453.636 557.987 391.202 361.43C328.369 163.621 456.017 113.714 607.009 73.2558C758 32.7978 914.529 127.359 937.991 214.918C963.585 310.438 873.175 462.635 722.183 503.093Z" fill="#E7CCA3"/>
<path d="M258.502 214.503C336.914 235.176 385.554 307.633 385.554 307.633C385.554 307.633 307.065 346.572 228.654 325.899C150.243 305.225 93.3595 263.53 101.602 232.769C109.844 202.008 180.091 193.83 258.502 214.503Z" fill="#BDA887"/>
<path d="M843.327 91.7831C816.956 104.829 821.351 129.834 826.845 140.706L876.29 197.783C958.697 132.552 901.012 10.2447 901.012 26.5524C901.012 42.8601 876.29 75.4754 843.327 91.7831Z" fill="#BDA887"/>
<path d="M541.678 206C452.344 226.167 180.678 111 180.678 111C225.011 164.833 359.278 259.2 541.678 206Z" fill="white"/>
<path d="M373.287 327.765C292.217 370.365 0 329.436 0 329.436C56.7558 369.96 210.871 426.361 373.287 327.765Z" fill="white"/>
<path d="M490.287 478.765C409.217 521.365 117 480.436 117 480.436C173.756 520.96 327.871 577.361 490.287 478.765Z" fill="white"/>
</svg>
